<?xml version="1.0" encoding="UTF-8"?>
<svg id="Layer_1" xmlns="http://www.w3.org/2000/svg" version="1.1" viewBox="0 0 226.43 132.62">
  <!-- Generator: Adobe Illustrator 29.1.0, SVG Export Plug-In . SVG Version: 2.1.0 Build 142)  -->
  <defs>
    <style>
      .st0 {
        fill: #fff;
      }
    </style>
  </defs>
  <g>
    <path class="st0" d="M34.8,33.28v48.45h7c.85,0,1.46.42,1.46,1.13s-.62,1.13-1.46,1.13H9.33c-.85,0-1.46-.42-1.46-1.13s.62-1.13,1.46-1.13h7v-48.45h-7c-.85,0-1.46-.42-1.46-1.13s.62-1.13,1.46-1.13h32.47c.85,0,1.46.42,1.46,1.13s-.62,1.13-1.46,1.13h-7ZM62.2,33.28c-.31,13.63-7.62,27.69-17.39,32.91,3.54.78,6.08,2.47,8.23,4.66l5.54,5.58c2.69,2.68,5.39,5.16,9.23,5.16,1.77,0,2.39.42,2.39,1.2s-.62,1.2-2.46,1.2c-4.77,0-8-2.12-11.47-5.58l-5.69-5.79c-2.69-2.75-5.54-4.45-10.08-4.45-.77,0-1.62-.28-1.62-1.2,0-.56.23-.92.92-1.13,10.54-3.11,19.01-18.5,19.31-32.56h-7c-.85,0-1.46-.42-1.46-1.13s.62-1.13,1.46-1.13h17.01c.85,0,1.46.42,1.46,1.13s-.62,1.13-1.46,1.13h-6.93Z"/>
    <path class="st0" d="M72.43,58.64c0-20.48,15.93-28.96,31.4-28.96,9.93,0,13.78,5.37,13.78,5.37v-3.11c0-.78.46-1.34,1.38-1.34s1.38.56,1.38,1.34v15.54c0,.78-.46,1.34-1.38,1.34s-1.38-.57-1.38-1.34v-7.77c0-2.26-5.16-7.77-13.24-7.77-6.39,0-11.16,4.59-11.16,25.43,0,22.03,4.77,25.42,11.16,25.42,9.62,0,15.08-6.92,16.47-11.72.23-.78.54-1.34,1.46-1.34.85,0,1.31.49,1.31,1.27,0,.49-.08,1.06-.23,1.55-1.92,5.79-8.39,12.64-20.39,12.64s-30.55-4.66-30.55-26.56Z"/>
  </g>
  <g>
    <path class="st0" d="M128.73,78.09"/>
    <path class="st0" d="M152.97,71.75l-.56,3.65c-2.24,1.4-5.61,1.91-8.47.78-1.12,5.89-5.22,11.61-10.99,11.61-4.21,0-7.01-3.37-7.01-7.85,0-7.8,5.05-14.81,11.39-14.81,4.77,0,6.96,4.21,6.96,7.85v.34c2.41,1.23,6.51.9,8.69-1.57ZM141.19,73.1c0-2.69-1.4-5.11-4.26-5.11-4.32,0-7.91,6.06-7.91,11.78,0,3.37,1.8,5.11,4.26,5.11,4.26,0,7.91-6.34,7.91-11.78Z"/>
    <path class="st0" d="M181.92,70.29l-.51,3.14c-3.36,2.52-8.86,2.92-11.78,1.85,4.54,7.85,2.92,27.66-6.84,27.66-5.95,0-5.16-7.07-.11-20.81.67-1.8,1.57-4.32,2.58-7.24-3.31,1.4-7.18,1.23-10.15.22,4.43,8.86,2.36,27.82-6.84,27.82-5.95,0-5.16-7.07-.11-20.81,2.24-6.11,7.4-20.7,10.49-29.68h3.25c-3.7,9.71-5.44,14.47-7.35,19.8,3.14,1.35,7.52,1.96,11.78-.28,2.3-6.45,4.94-14.02,6.84-19.52h3.2c-2.47,6.73-4.94,13.46-7.24,20.2,3.48,1.23,9.26.9,12.79-2.36ZM153.03,76.52c-4.99,13.86-8.25,23.45-4.43,23.45,5.95,0,7.69-16.61,4.43-23.45ZM167.56,76.52c-4.99,13.86-8.25,23.62-4.43,23.62,5.94,0,7.69-16.77,4.43-23.62Z"/>
    <path class="st0" d="M201.22,74.61v3.48c-2.19,5.27-6.9,9.71-14.02,9.71-5.84-.06-9.03-3.81-9.03-8.41,0-7.57,4.77-14.19,10.94-14.19,4.15,0,5.95,3.14,5.95,5.78,0,6.28-6.4,10.21-13.75,8.64.28,3.03,2.13,5.33,6.57,5.33,5.72,0,10.21-4.66,13.35-10.32ZM181.48,76.91c4.99,1.46,10.44-1.18,10.44-5.72,0-1.57-1.01-3.14-2.92-3.14-3.81,0-6.84,4.21-7.52,8.86Z"/>
    <path class="st0" d="M218.56,81.62c-1.74,2.92-5.84,6.17-11,6.17-5.83-.06-9.03-3.81-9.03-8.41,0-7.57,4.77-14.19,10.94-14.19,4.15,0,5.94,3.14,5.94,5.78,0,5.78-6.45,10.04-13.74,8.58.22,3.03,2.13,5.39,6.56,5.39,3.2,0,6.84-2.92,8.3-5.33l2.02,2.02ZM201.84,76.86c4.99,1.35,10.43-1.63,10.43-5.67,0-1.57-1.01-3.14-2.91-3.14-3.82,0-6.79,4.15-7.52,8.81Z"/>
  </g>
</svg>